<svg width="30" height="24" viewBox="0 0 30 24" fill="none" xmlns="http://www.w3.org/2000/svg">
<path d="M27 3H15L12.885 0.885C12.315 0.315 11.55 0 10.755 0H3C1.35 0 0.015 1.35 0.015 3L0 21C0 22.65 1.35 24 3 24H27C28.65 24 30 22.65 30 21V6C30 4.35 28.65 3 27 3ZM16.5 18H7.5C6.675 18 6 17.325 6 16.5C6 15.675 6.675 15 7.5 15H16.5C17.325 15 18 15.675 18 16.5C18 17.325 17.325 18 16.5 18ZM22.5 12H7.5C6.675 12 6 11.325 6 10.5C6 9.675 6.675 9 7.5 9H22.5C23.325 9 24 9.675 24 10.5C24 11.325 23.325 12 22.5 12Z" fill="white"/>
</svg>
