<svg width="36" height="36" viewBox="0 0 36 36" fill="none" xmlns="http://www.w3.org/2000/svg">
<path d="M30 9H18L15.885 6.885C15.315 6.315 14.55 6 13.755 6H6C4.35 6 3.015 7.35 3.015 9L3 27C3 28.65 4.35 30 6 30H30C31.65 30 33 28.65 33 27V12C33 10.35 31.65 9 30 9ZM19.5 24H10.5C9.675 24 9 23.325 9 22.5C9 21.675 9.675 21 10.5 21H19.5C20.325 21 21 21.675 21 22.5C21 23.325 20.325 24 19.5 24ZM25.5 18H10.5C9.675 18 9 17.325 9 16.5C9 15.675 9.675 15 10.5 15H25.5C26.325 15 27 15.675 27 16.5C27 17.325 26.325 18 25.5 18Z" fill="#CCCCCC"/>
</svg>
